<svg xmlns="http://www.w3.org/2000/svg" viewBox="0 0 64 64" role="img" aria-labelledby="title desc">
  <title id="title">Sherpa</title>
  <desc id="desc">Sherpa green globe mark with a blue S.</desc>
  <defs>
    <linearGradient id="globeGreen" x1="9" y1="6" x2="50" y2="54" gradientUnits="userSpaceOnUse">
      <stop offset="0" stop-color="#13c96f"/>
      <stop offset="0.52" stop-color="#05ad57"/>
      <stop offset="1" stop-color="#008b45"/>
    </linearGradient>
    <clipPath id="globeClip">
      <circle cx="29" cy="28.5" r="25.5"/>
    </clipPath>
  </defs>

  <circle cx="29" cy="28.5" r="27.2" fill="#ffffff"/>
  <circle cx="29" cy="28.5" r="25.5" fill="url(#globeGreen)"/>
  <g clip-path="url(#globeClip)" fill="#ffffff">
    <path d="M10.8 14.8c2.4-3.2 6-5.8 10-7.3l5.7 2.1-1.3 3.2-4.1.7-2.5 2.5 1.7 2.2-1.4 3.6-5.2-1.3-3.7 2.9-4.9-1.5c.9-2.7 2.8-5.1 5.7-7.1z"/>
    <path d="M25.8 6.8c5.1-.6 10.5.5 14.9 3.2l-2.9 2.8 1.2 3.5-4.1 2.1-2.7-2.2-3.9.6-1.9-3.2 2.7-2.4-3.3-4.4z"/>
    <path d="M41.5 13.9c5 3.3 8.6 8.3 9.8 14.1l-5.5.8-2.4-2.7-4.6.9-2-3.4 3.6-2.4-1.7-3.8 2.8-3.5z"/>
    <path d="M28.2 20.2l5.2 2.1 1.7 4.3 4.5 1.5-1 5.6-4.2 2.5-1.2 7.1-4.4 3.6-5.4-6.7.7-7.3-5.4-3.7 2.7-5.6 6.8-3.4z"/>
    <path d="M11.3 27.5l5.2.7 3.9 4.1-2.5 5.3 2.4 5.6-2.9 4.7c-5.6-3.4-9.2-8.6-10.1-14.9l4-5.5z"/>
    <path d="M39.7 37.5l6-2.3 5.7 2c-1.7 6.2-6.1 11.4-12.1 14.2l-3.2-4.4 3.6-9.5z"/>
  </g>
  <circle cx="29" cy="28.5" r="25.5" fill="none" stroke="#00a85a" stroke-width="2.1"/>
  <circle cx="29" cy="28.5" r="21" fill="none" stroke="#ffffff" stroke-opacity="0.42" stroke-width="1.1"/>

  <path d="M44.2 21.5c-3.3-4-15.4-4.9-18.6-.3-4.3 6.2 16.6 5.7 14.2 13.8-2.3 7.4-16.4 7.3-21.9 2.7" fill="none" stroke="#ffffff" stroke-width="10" stroke-linecap="round" stroke-linejoin="round"/>
  <path d="M44.2 21.5c-3.3-4-15.4-4.9-18.6-.3-4.3 6.2 16.6 5.7 14.2 13.8-2.3 7.4-16.4 7.3-21.9 2.7" fill="none" stroke="#006f9f" stroke-width="6.6" stroke-linecap="round" stroke-linejoin="round"/>
  <path d="M44.2 21.5c-3.3-4-15.4-4.9-18.6-.3-4.3 6.2 16.6 5.7 14.2 13.8-2.3 7.4-16.4 7.3-21.9 2.7" fill="none" stroke="#0c86bd" stroke-width="3.2" stroke-linecap="round" stroke-linejoin="round"/>
</svg>
